<svg width="19" height="24" viewBox="0 0 19 24" fill="none" xmlns="http://www.w3.org/2000/svg">
<path opacity="0.6" d="M13.837 6.50053L14.1287 6.51011C14.9691 6.54034 15.7909 6.76199 16.5298 7.15768C17.2686 7.55337 17.9045 8.11235 18.3874 8.79079C18.2902 8.85787 15.84 10.2569 15.8692 13.1701C15.9081 16.6486 18.9708 17.8081 19 17.8273C18.9806 17.9039 18.5138 19.4755 17.386 21.095C16.4137 22.494 15.4025 23.8931 13.8176 23.9219C12.2619 23.9506 11.7466 23.0019 9.96726 23.0019C8.17822 23.0019 7.61428 23.8931 6.13637 23.9506C4.60985 24.0081 3.43335 22.4366 2.46105 21.0375C0.44837 18.1818 -1.07815 12.9688 0.973416 9.44242C1.45691 8.59148 2.15658 7.87905 3.00377 7.37505C3.85096 6.87105 4.81655 6.5928 5.80578 6.56761C7.31286 6.53886 8.73243 7.56421 9.65612 7.56421C10.5798 7.56421 12.3105 6.32804 14.1287 6.51011L13.837 6.50053ZM14.1482 0.952148C14.249 2.28552 13.8123 3.6043 12.9328 4.62232C12.5212 5.1373 11.995 5.55207 11.3948 5.83455C10.7946 6.11703 10.1365 6.25965 9.47139 6.25138C9.42519 5.60749 9.51068 4.96102 9.7228 4.35031C9.93492 3.7396 10.2693 3.17711 10.7062 2.6962C11.5851 1.70254 12.8168 1.07843 14.1482 0.952148V0.952148Z" fill="black"/>
</svg>
