<svg width="30" height="26" viewBox="0 0 30 26" fill="none" xmlns="http://www.w3.org/2000/svg">
<path d="M26.0497 3.76246C25.4112 3.12372 24.6532 2.61702 23.8189 2.27132C22.9845 1.92561 22.0903 1.74768 21.1872 1.74768C20.2841 1.74768 19.3898 1.92561 18.5555 2.27132C17.7211 2.61702 16.9631 3.12372 16.3247 3.76246L14.9997 5.08746L13.6747 3.76246C12.385 2.47285 10.636 1.74835 8.81216 1.74835C6.98837 1.74835 5.23928 2.47285 3.94966 3.76246C2.66005 5.05208 1.93555 6.80117 1.93555 8.62496C1.93555 10.4488 2.66005 12.1978 3.94966 13.4875L5.27466 14.8125L14.9997 24.5375L24.7247 14.8125L26.0497 13.4875C26.6884 12.849 27.1951 12.091 27.5408 11.2567C27.8865 10.4223 28.0644 9.52807 28.0644 8.62496C28.0644 7.72185 27.8865 6.82759 27.5408 5.99327C27.1951 5.15894 26.6884 4.40091 26.0497 3.76246V3.76246Z" stroke="#F46692" stroke-width="2.5" stroke-linecap="round" stroke-linejoin="round"/>
</svg>
