<svg width="27" height="27" viewBox="0 0 27 27" fill="none" xmlns="http://www.w3.org/2000/svg">
<path d="M11.375 25.75C12.0654 25.75 12.625 25.1904 12.625 24.5C12.625 23.8096 12.0654 23.25 11.375 23.25C10.6846 23.25 10.125 23.8096 10.125 24.5C10.125 25.1904 10.6846 25.75 11.375 25.75Z" stroke="#65C366" stroke-width="2.5" stroke-linecap="round" stroke-linejoin="round"/>
<path d="M21.375 25.75C22.0654 25.75 22.625 25.1904 22.625 24.5C22.625 23.8096 22.0654 23.25 21.375 23.25C20.6846 23.25 20.125 23.8096 20.125 24.5C20.125 25.1904 20.6846 25.75 21.375 25.75Z" stroke="#65C366" stroke-width="2.5" stroke-linecap="round" stroke-linejoin="round"/>
<path d="M2 2H5.75L9.125 17.5C9.24188 18.0732 9.55606 18.5872 10.0129 18.9527C10.4697 19.3181 11.0401 19.5118 11.625 19.5H21.25C21.8349 19.5118 22.4053 19.3181 22.8621 18.9527C23.3189 18.5872 23.6331 18.0732 23.75 17.5L25.75 7H7.75" stroke="#65C366" stroke-width="2.5" stroke-linecap="round" stroke-linejoin="round"/>
</svg>
