<svg width="34" height="34" viewBox="0 0 34 34" fill="none" xmlns="http://www.w3.org/2000/svg">
<path d="M17.0003 24.0833C20.9123 24.0833 24.0837 20.912 24.0837 17C24.0837 13.0879 20.9123 9.91663 17.0003 9.91663C13.0883 9.91663 9.91699 13.0879 9.91699 17C9.91699 20.912 13.0883 24.0833 17.0003 24.0833Z" stroke="#3685F7" stroke-width="2.83333" stroke-linecap="round" stroke-linejoin="round"/>
<path d="M26.067 7.93329L28.0503 5.94996M17.0003 1.41663V4.24996V1.41663ZM17.0003 29.75V32.5833V29.75ZM5.95032 5.94996L7.93366 7.93329L5.95032 5.94996ZM26.067 26.0666L28.0503 28.05L26.067 26.0666ZM1.41699 17H4.25033H1.41699ZM29.7503 17H32.5837H29.7503ZM5.95032 28.05L7.93366 26.0666L5.95032 28.05Z" stroke="#3685F7" stroke-width="2.83333" stroke-linecap="round" stroke-linejoin="round"/>
</svg>
